Coordinates
version=1
nRows=19
nColumns=36
inDegrees=yes

Units are S.I. units (second, meters, Newtons, ...)
If the header above contains a line with 'inDegrees', this indicates whether rotational values are in degrees (yes) or radians (no).

endheader
time	pelvis_tilt	pelvis_list	pelvis_rotation	pelvis_tx	pelvis_ty	pelvis_tz	hip_flexion_r	hip_adduction_r	hip_rotation_r	knee_angle_r	knee_angle_r_beta	ankle_angle_r	subtalar_angle_r	mtp_angle_r	hip_flexion_l	hip_adduction_l	hip_rotation_l	knee_angle_l	knee_angle_l_beta	ankle_angle_l	subtalar_angle_l	mtp_angle_l	lumbar_extension	lumbar_bending	lumbar_rotation	arm_flex_r	arm_add_r	arm_rot_r	elbow_flex_r	pro_sup_r	arm_flex_l	arm_add_l	arm_rot_l	elbow_flex_l	pro_sup_l
      1.88333330	     -0.50977058	      4.26216931	     -4.41793817	     -0.30949733	      1.27619918	     -0.08428242	     -5.38277006	     -6.69551251	     13.89743816	      0.80503302	      0.01405048	      9.13692801	    -22.38083660	     -7.49999987	     -4.04366898	      1.26602831	     11.92179502	      4.43259822	      0.07736343	      9.55289753	    -11.20897171	     -7.49999987	     -5.22178736	     -3.72792290	      0.19745140	      4.43264147	     -3.25531792	     14.36660238	     20.15020077	     80.13599490	      3.51222279	     -6.19499961	      9.47511727	     25.26151334	     76.92863693
      1.90000000	     -0.52106823	      4.23937096	     -4.44356170	     -0.30936245	      1.27615075	     -0.08424400	     -5.29399865	     -6.70053789	     13.90367312	      0.82981608	      0.01448302	      9.14502904	    -22.21903189	     -7.49999987	     -4.06017420	      1.25089513	     11.78099783	      4.40065756	      0.07680596	      9.53530879	    -11.32677807	     -7.49999987	     -5.32807934	     -3.66517811	      0.20085996	      4.44199962	     -3.26323758	     13.56656564	     20.30319293	     82.56021816	      3.53716173	     -6.13365925	      8.91908379	     25.36147012	     79.22412187
      1.91666670	     -0.57278932	      4.21817491	     -4.37739355	     -0.30942330	      1.27874353	     -0.08420621	     -5.21730368	     -6.69274192	     13.96668714	      0.84978356	      0.01483152	      9.08563952	    -22.25799496	     -7.49999987	     -4.03221869	      1.23989450	     11.92825437	      4.36611714	      0.07620312	      9.34045790	    -11.82185068	     -7.49999987	     -5.34219142	     -3.59224557	      0.01117032	      4.55080388	     -3.33921791	     15.03068265	     20.39627224	     75.95215522	      3.52327822	     -6.21491879	      9.98410513	     25.47104472	     73.33265476
      1.93333330	     -0.53473337	      4.18455490	     -4.35494989	     -0.30934840	      1.27851324	     -0.08422074	     -5.24223986	     -6.67457535	     13.91184685	      0.87076502	      0.01519772	      9.21687106	    -21.86792723	     -7.49999987	     -4.08778508	      1.21518431	     11.77346950	      4.40848111	      0.07694251	      9.36354228	    -11.82065340	     -7.49999987	     -5.46133836	     -3.53405303	      0.11876133	      4.52668215	     -3.32242041	     13.53285966	     20.34982726	     82.73949112	      3.63860179	     -6.10310892	      8.98936515	     25.40026181	     79.47388956
      1.95000000	     -0.53906195	      4.17913801	     -4.34140825	     -0.30935840	      1.27610227	     -0.08434283	     -5.22047421	     -6.68193312	     13.97050637	      0.88042729	      0.01536635	      9.18205988	    -21.87951429	     -7.49999987	     -4.09307020	      1.22610336	     11.79953136	      4.42777386	      0.07727923	      9.30809051	    -11.88554798	     -7.49999987	     -5.48010579	     -3.50412846	      0.09516534	      4.55327370	     -3.39194030	     14.94748831	     20.45917935	     75.48034397	      3.64370016	     -6.15360762	     10.05048800	     25.57472656	     73.09460475
      1.96666670	     -0.38075691	      4.10715893	     -4.38746747	     -0.30927469	      1.27622927	     -0.08435593	     -5.38386400	     -6.63335079	     13.84452687	      0.90593594	      0.01581157	      9.55395290	    -21.25733927	     -7.49999987	     -4.28309755	      1.16280317	     11.57530403	      4.40316917	      0.07684980	      9.52760784	    -11.40142837	     -7.49999987	     -5.73542420	     -3.41703033	      0.17270553	      4.59368324	     -3.46316359	     15.15308079	     20.52554045	     74.79890426	      3.77605044	     -6.08964932	     10.11228622	     25.52380979	     72.48429625
      1.98333330	     -0.52532559	      4.09084973	     -4.43157099	     -0.30933984	      1.27856322	     -0.08423262	     -5.19231870	     -6.60723632	     14.06670367	      0.95517425	      0.01667094	      9.46962051	    -21.47981466	     -7.49999987	     -4.13354850	      1.14839766	     11.65045202	      4.35715067	      0.07604663	      9.39360223	    -11.63455114	     -7.49999987	     -5.55863263	     -3.35548661	      0.11292008	      4.61012384	     -3.39039029	     13.52602868	     20.37104967	     82.81373411	      3.61166196	     -6.02192828	      8.69523658	     25.57393314	     79.69215127
      2.00000000	     -0.48147267	      4.05860934	     -4.44138133	     -0.30287681	      1.27611723	     -0.08138485	     -5.31215801	     -6.53631836	     14.18815714	      0.96682224	      0.01687423	      9.51380545	    -21.45234408	     -7.49999987	     -4.20732118	      1.10767128	     11.74410466	      4.38233531	      0.07648618	      9.42117414	    -11.58952525	     -7.49999987	     -5.54377205	     -3.35585868	      0.09655044	      4.37716476	     -3.31644756	     13.54348596	     20.31540911	     82.81594121	      3.45934252	     -6.05224149	      8.69757530	     25.54220609	     79.69327858
      2.01666670	     -0.39937769	      3.96557539	     -4.53021273	     -0.30299927	      1.27885788	     -0.08139525	     -5.52449390	     -6.42087473	     14.32118538	      0.93531360	      0.01632430	      9.68693091	    -21.38201590	     -7.49999987	     -4.48230661	      0.98483501	     11.73765107	      4.15545150	      0.07252631	      9.62317820	    -11.28073309	     -7.49999987	     -5.43942132	     -3.27619075	      0.13796578	      4.28998017	     -3.33153665	     14.26262183	     20.27530297	     79.80615301	      3.18855490	     -6.05767046	      9.04613560	     25.74240362	     76.95387288
      2.03333330	     -0.38856933	      3.91499486	     -4.62004276	     -0.30289835	      1.27583145	     -0.08127764	     -5.63074584	     -6.34257734	     14.60191339	      0.90718467	      0.01583336	      9.61219357	    -21.66817884	     -7.49999987	     -4.60173055	      0.91004316	     11.80843005	      4.05035222	      0.07069198	      9.78001795	    -11.10263417	     -7.49999987	     -5.20206840	     -3.27881463	      0.14017320	      4.17811206	     -3.36829089	     16.24074561	     20.05849307	     75.12441904	      3.02232662	     -6.22204283	     10.30668375	     25.70701131	     72.70858981
      2.05000000	     -0.30226566	      3.84821217	     -4.68776734	     -0.30323707	      1.27846386	     -0.08113705	     -5.80491597	     -6.25481555	     14.67905034	      0.89974705	      0.01570355	      9.70912400	    -21.56805258	     -7.49999987	     -4.80985163	      0.80560589	     11.78075088	      3.97152299	      0.06931615	      9.82185766	    -11.07816464	     -7.49999987	     -5.11474475	     -3.26464557	      0.26208857	      4.10046608	     -3.37018554	     16.38449522	     19.93010711	     74.92885473	      2.97513661	     -6.19192089	     10.25671612	     25.49612116	     72.60698378
      2.06666670	     -0.26304080	      3.79337697	     -4.73722235	     -0.30319584	      1.27811771	     -0.08109362	     -5.92742004	     -6.18979122	     14.66301123	      0.86770219	      0.01514426	      9.76830830	    -21.34940655	     -7.49999987	     -4.94661917	      0.72553821	     11.72114685	      3.91093031	      0.06825861	      9.98631253	    -10.85044952	     -7.49999987	     -5.04429635	     -3.23779221	      0.33232838	      3.92679648	     -3.20180766	     13.73656371	     20.05364887	     82.34498347	      2.80857992	     -5.98242095	      8.04287098	     25.54471624	     79.77494323
      2.08333330	     -0.18133591	      3.76959934	     -4.75529144	     -0.30345605	      1.27831502	     -0.08112956	     -6.09163879	     -6.15458078	     14.74081943	      0.84395779	      0.01472984	      9.67448265	    -21.42124149	     -7.49999987	     -5.12953862	      0.68086913	     11.75686452	      3.86915109	      0.06752943	     10.03526607	    -10.88296046	     -7.49999987	     -5.03063582	     -3.26777051	      0.41462812	      3.83029922	     -3.16872661	     13.90199993	     19.93249587	     82.18349091	      2.80855053	     -5.98347679	      8.01294020	     25.44301042	     79.72219841
      2.10000000	     -0.26219876	      3.75503381	     -4.79677607	     -0.30325536	      1.27786451	     -0.08108124	     -6.03964968	     -6.13039267	     14.79534340	      0.83350896	      0.01454748	      9.62302226	    -21.39869790	     -7.49999987	     -5.12631708	      0.64809032	     11.77523053	      3.83494614	      0.06693244	     10.04432188	    -10.98718898	     -7.49999987	     -4.75647035	     -3.25821114	      0.54635251	      3.79406012	     -3.37171547	     16.70193947	     19.70730694	     76.89696843	      2.91364949	     -6.19287353	     10.31246606	     25.14575202	     74.79032544
      2.11666670	     -0.21497709	      3.74987085	     -4.77976918	     -0.30354252	      1.27807940	     -0.08110695	     -6.14311501	     -6.12125804	     14.80665648	      0.80409861	      0.01403417	      9.59089138	    -21.37057893	     -7.49999987	     -5.22271226	      0.63424000	     11.84732764	      3.83620461	      0.06695440	     10.05570789	    -11.09416045	     -7.49999987	     -4.77668774	     -3.28931811	      0.54684338	      3.63746252	     -3.12629995	     14.28521474	     19.63904390	     82.04546936	      2.79460532	     -5.99616836	      8.28313269	     25.27467021	     79.77794006
      2.13333330	     -0.19627539	      3.74713138	     -4.82277330	     -0.30338829	      1.27784900	     -0.08103291	     -6.18811847	     -6.11116734	     14.98908752	      0.79451173	      0.01386685	      9.58558495	    -21.46712113	     -7.49999987	     -5.28736971	      0.63976468	     11.73763358	      3.86080250	      0.06738372	     10.12658487	    -11.05163753	     -7.49999987	     -4.74564621	     -3.30374447	      0.61856910	      3.56144949	     -3.07708471	     14.06202490	     19.58842869	     82.15087826	      2.76284292	     -5.96002181	      8.00443592	     25.30375188	     79.87128491
      2.15000000	     -0.18694076	      3.72668488	     -4.78732804	     -0.30361707	      1.27791103	     -0.08115814	     -6.23172348	     -6.07783083	     14.97251586	      0.78250545	      0.01365730	      9.64140168	    -21.38837989	     -7.49999987	     -5.34836705	      0.61689542	     11.82189283	      3.83401179	      0.06691613	     10.05307339	    -11.21695648	     -7.49999987	     -4.70208451	     -3.29469671	      0.62197791	      3.47485113	     -3.07513625	     14.13826321	     19.36401527	     82.32619300	      2.79883416	     -5.95994975	      8.14959473	     25.18611881	     80.08269297
      2.16666670	     -0.22261397	      3.71890337	     -4.82436025	     -0.30338073	      1.27762941	     -0.08114247	     -6.21470265	     -6.07490022	     15.17104640	      0.77147326	      0.01346475	      9.50772694	    -21.70782068	     -7.49999987	     -5.34061514	      0.61905195	     11.77768970	      3.83995280	      0.06701982	     10.06763805	    -11.30488345	     -7.49999987	     -4.54360701	     -3.29072311	      0.59849131	      3.47043272	     -3.15203709	     15.70215684	     19.07945869	     77.90596814	      2.80084987	     -6.05664650	      9.43986037	     25.05602374	     75.80644880
      2.18333330	     -0.16374980	      3.67725733	     -4.83875277	     -0.30366844	      1.27777031	     -0.08121126	     -6.28450248	     -6.03023327	     15.13920559	      0.76621029	      0.01337289	      9.64245850	    -21.50228920	     -7.49999987	     -5.44130907	      0.58935328	     11.69985310	      3.81852205	      0.06664578	     10.12108208	    -11.22830614	     -7.49999987	     -4.63494238	     -3.25047715	      0.61080678	      3.37457502	     -3.08135326	     14.10572372	     19.01726574	     82.20497101	      2.75257466	     -5.90915925	      8.07791918	     25.16898130	     80.11691203
